<svg width="295" height="402" viewBox="0 0 295 402" fill="none" xmlns="http://www.w3.org/2000/svg">
<path d="M39.12 360.448H52.032C55.648 360.448 58.496 361.36 60.576 363.184C62.688 364.976 63.744 367.536 63.744 370.864C63.744 374.256 62.704 376.832 60.624 378.592C58.544 380.32 55.68 381.184 52.032 381.184H44.016V394H39.12V360.448ZM51.504 377.104C53.744 377.104 55.52 376.64 56.832 375.712C58.144 374.784 58.8 373.168 58.8 370.864C58.8 368.56 58.144 366.944 56.832 366.016C55.52 365.056 53.744 364.576 51.504 364.576H44.016V377.104H51.504ZM77.5609 394.72C74.9689 394.72 72.6809 394.24 70.6969 393.28C68.7449 392.288 67.2089 390.88 66.0889 389.056C65.0009 387.2 64.4569 385.024 64.4569 382.528C64.4569 380.064 65.0009 377.904 66.0889 376.048C67.1769 374.192 68.7129 372.768 70.6969 371.776C72.6809 370.752 74.9689 370.24 77.5609 370.24C80.1529 370.24 82.4409 370.752 84.4249 371.776C86.4089 372.768 87.9449 374.192 89.0329 376.048C90.1529 377.904 90.7129 380.064 90.7129 382.528C90.7129 385.024 90.1529 387.2 89.0329 389.056C87.9449 390.88 86.4089 392.288 84.4249 393.28C82.4409 394.24 80.1529 394.72 77.5609 394.72ZM77.5609 390.88C80.0569 390.88 82.0409 390.112 83.5129 388.576C84.9849 387.04 85.7209 385.024 85.7209 382.528C85.7209 379.936 84.9849 377.888 83.5129 376.384C82.0409 374.88 80.0569 374.128 77.5609 374.128C75.0649 374.128 73.0809 374.88 71.6089 376.384C70.1369 377.888 69.4009 379.936 69.4009 382.528C69.4009 385.024 70.1369 387.04 71.6089 388.576C73.0809 390.112 75.0649 390.88 77.5609 390.88ZM95.9794 370.96H100.587V374.272C101.675 372.928 102.907 371.92 104.283 371.248C105.659 370.576 107.083 370.24 108.555 370.24C110.411 370.24 111.883 370.56 112.971 371.2C114.059 371.808 114.859 372.752 115.371 374.032C116.395 372.784 117.643 371.84 119.115 371.2C120.619 370.56 122.123 370.24 123.627 370.24C126.443 370.24 128.475 370.96 129.723 372.4C130.971 373.808 131.595 375.904 131.595 378.688V394H126.891V379.312C126.891 377.424 126.539 376.096 125.835 375.328C125.131 374.528 123.931 374.128 122.235 374.128C119.803 374.128 117.819 375.184 116.283 377.296C116.347 377.776 116.379 378.56 116.379 379.648V394H111.675V379.312C111.675 377.424 111.355 376.096 110.715 375.328C110.075 374.528 108.923 374.128 107.259 374.128C104.827 374.128 102.651 375.504 100.731 378.256V394H95.9794V370.96ZM149.045 394.72C146.453 394.72 144.165 394.24 142.181 393.28C140.229 392.288 138.693 390.88 137.573 389.056C136.485 387.2 135.941 385.024 135.941 382.528C135.941 380.064 136.485 377.904 137.573 376.048C138.661 374.192 140.197 372.768 142.181 371.776C144.165 370.752 146.453 370.24 149.045 370.24C151.637 370.24 153.925 370.752 155.909 371.776C157.893 372.768 159.429 374.192 160.517 376.048C161.637 377.904 162.197 380.064 162.197 382.528C162.197 385.024 161.637 387.2 160.517 389.056C159.429 390.88 157.893 392.288 155.909 393.28C153.925 394.24 151.637 394.72 149.045 394.72ZM149.045 390.88C151.541 390.88 153.525 390.112 154.997 388.576C156.469 387.04 157.205 385.024 157.205 382.528C157.205 379.936 156.469 377.888 154.997 376.384C153.525 374.88 151.541 374.128 149.045 374.128C146.549 374.128 144.565 374.88 143.093 376.384C141.621 377.888 140.885 379.936 140.885 382.528C140.885 385.024 141.621 387.04 143.093 388.576C144.565 390.112 146.549 390.88 149.045 390.88ZM175.641 394.72C173.305 394.72 171.497 394.048 170.217 392.704C168.969 391.36 168.345 389.456 168.345 386.992V374.704H164.841V370.96H168.345V364.048H173.241V370.96H178.905V374.704H173.241V386.656C173.241 388.192 173.529 389.28 174.105 389.92C174.713 390.56 175.801 390.88 177.369 390.88C178.297 390.88 179.225 390.672 180.153 390.256V394.096C178.937 394.512 177.433 394.72 175.641 394.72ZM192.267 394.72C189.483 394.72 187.243 394.016 185.547 392.608C183.883 391.168 183.051 389.232 183.051 386.8C183.051 384.24 183.851 382.272 185.451 380.896C187.083 379.488 189.387 378.784 192.363 378.784C195.531 378.784 198.219 379.424 200.427 380.704V379.504C200.427 377.68 199.867 376.336 198.747 375.472C197.659 374.576 195.931 374.128 193.563 374.128C192.155 374.128 190.779 374.272 189.435 374.56C188.123 374.816 186.939 375.184 185.883 375.664V371.728C186.843 371.28 188.091 370.928 189.627 370.672C191.163 370.384 192.651 370.24 194.091 370.24C197.899 370.24 200.715 371.088 202.539 372.784C204.395 374.448 205.323 376.768 205.323 379.744V394H200.763V391.408C199.771 392.496 198.587 393.328 197.211 393.904C195.867 394.448 194.219 394.72 192.267 394.72ZM193.467 391.024C195.003 391.024 196.395 390.72 197.643 390.112C198.891 389.504 199.819 388.656 200.427 387.568V384.448C198.347 383.104 196.027 382.432 193.467 382.432C191.611 382.432 190.219 382.8 189.291 383.536C188.395 384.24 187.947 385.328 187.947 386.8C187.947 389.616 189.787 391.024 193.467 391.024ZM219.132 394.72C217.532 394.72 215.836 394.512 214.044 394.096C212.252 393.712 210.844 393.184 209.82 392.512V388.384C211.068 389.12 212.508 389.728 214.14 390.208C215.772 390.656 217.356 390.88 218.892 390.88C220.62 390.88 221.884 390.672 222.684 390.256C223.484 389.84 223.884 389.168 223.884 388.24C223.884 387.536 223.692 386.976 223.308 386.56C222.956 386.112 222.332 385.712 221.436 385.36C220.572 385.008 219.26 384.592 217.5 384.112C215.612 383.568 214.108 383.024 212.988 382.48C211.9 381.904 211.068 381.184 210.492 380.32C209.948 379.456 209.676 378.336 209.676 376.96C209.676 374.752 210.54 373.088 212.268 371.968C214.028 370.816 216.38 370.24 219.324 370.24C220.86 370.24 222.364 370.384 223.836 370.672C225.308 370.96 226.492 371.36 227.388 371.872V375.904C226.46 375.36 225.308 374.928 223.932 374.608C222.588 374.288 221.212 374.128 219.804 374.128C218.108 374.128 216.812 374.336 215.916 374.752C215.02 375.168 214.572 375.904 214.572 376.96C214.572 377.632 214.764 378.176 215.148 378.592C215.532 379.008 216.14 379.376 216.972 379.696C217.836 379.984 219.196 380.368 221.052 380.848C223.964 381.648 225.98 382.592 227.1 383.68C228.252 384.768 228.828 386.272 228.828 388.192C228.828 390.176 228.012 391.76 226.38 392.944C224.748 394.128 222.332 394.72 219.132 394.72ZM234.12 358.528H238.968V394H234.12V358.528ZM239.016 382.336L249.624 370.96H255.528L244.872 382.336L256.632 394H250.728L239.016 382.336Z" fill="black"/>
<path d="M179.764 133.98C320.727 94.9891 343.633 314.382 178.058 348.907C151.091 354.631 123.139 353.983 96.4734 347.015C-58.9945 305.732 -3.19364 93.8537 111.788 135.224C137.233 143.009 150.94 141.949 179.819 133.98" fill="black"/>
<path d="M179.764 133.98C320.727 94.9891 343.633 314.382 178.058 348.907C151.091 354.631 123.139 353.983 96.4734 347.015C-58.9945 305.732 -3.19364 93.8537 111.788 135.224C137.233 143.009 150.94 141.949 179.819 133.98" stroke="black" stroke-miterlimit="10"/>
<path d="M134.699 120.862C101.523 120.862 73.9936 104.04 60.5171 89.6504C57.1428 86.1748 54.3596 82.1873 52.2747 77.8411C69.1442 95.4064 84.5989 105.337 108.337 105.337C111.085 105.337 114.024 105.189 116.992 104.905C117.551 104.884 118.085 104.672 118.503 104.307C118.921 103.941 119.198 103.444 119.285 102.901C119.373 102.357 119.266 101.801 118.983 101.326C118.7 100.851 118.258 100.488 117.734 100.298C111.071 97.4196 100.328 83.2728 93.8716 64.5726C90.2449 54.0875 85.7116 35.1981 91.7286 17.6869C92.6697 28.4575 94.9772 39.0701 98.5973 49.2773C108.502 76.3954 127.103 92.0014 152.379 94.3795C153.753 94.5146 155.209 94.5821 156.624 94.5821C199.691 94.5821 238.719 34.2117 257.375 0C243.472 39.9002 225.779 70.3826 204.499 90.8394C183.893 110.742 160.347 120.835 134.713 120.849L134.699 120.862Z" fill="black"/>
<path d="M153.279 84.2375C146.259 84.2375 140.671 81.9209 136.692 77.3411C136.618 77.2585 136.564 77.1601 136.536 77.0538C136.507 76.9475 136.505 76.8362 136.528 76.7287C136.548 76.6163 136.594 76.5099 136.662 76.4176C136.731 76.3252 136.82 76.2495 136.923 76.1962C171.719 57.8769 177.362 36.4555 182.813 15.833C184.081 11.0667 185.389 6.12745 187.038 1.26804V1.08163V0.881937C187.038 0.309458 188.32 0.00324375 189.464 0.00324375C190.42 -0.0251708 191.371 0.13333 192.263 0.469426C193.155 0.805522 193.969 1.31243 194.657 1.96032C194.848 2.1636 194.985 2.40939 195.056 2.67625C195.128 2.94312 195.131 3.22294 195.066 3.49136C185.703 39.238 169.307 72.1755 164.509 81.415C164.285 81.8482 163.967 82.2278 163.576 82.527C163.185 82.8261 162.731 83.0374 162.247 83.1458C159.282 83.8447 156.246 84.2109 153.197 84.2375H153.279Z" fill="black"/>
<path d="M37.6252 162.318C37.6252 162.318 9.95561 235 36.8463 301.493C-0.211306 256.659 7.62962 205.393 37.6252 162.318Z" fill="#D9D9D9" stroke="#D9D9D9" stroke-width="0.5" stroke-miterlimit="10"/>
<path d="M283.012 224.581C283.012 224.581 262.512 171.392 209.762 147.668C250.147 147.668 281.556 180.87 283.012 224.581Z" fill="#D9D9D9" stroke="#D9D9D9" stroke-width="0.5" stroke-miterlimit="10"/>
<path d="M147.5 334.456C198.069 334.456 239.063 293.462 239.063 242.893C239.063 192.325 198.069 151.331 147.5 151.331C96.9314 151.331 55.9375 192.325 55.9375 242.893C55.9375 293.462 96.9314 334.456 147.5 334.456Z" fill="#D9D9D9"/>
<path d="M205.952 200.705C206.148 201.651 206.148 202.63 205.952 203.576C205.707 204.838 205.093 205.991 204.194 206.877C202.076 208.957 159.346 253.519 154.24 259.098C152.376 261.298 146.91 262.266 144.273 259.549C137.43 252.078 130.682 244.519 123.713 237.18C121.213 234.55 121.425 229.852 123.278 228.113C126.297 225.263 130.291 225.142 133.055 228.047C136.561 231.733 140.12 235.364 143.446 239.215C146.772 243.066 150.861 242.67 154.039 239.369C157.524 235.749 192.172 199.758 194.799 197.14C195.73 196.228 196.898 195.618 198.159 195.385C199.42 195.153 200.718 195.307 201.896 195.83C202.898 196.246 203.789 196.906 204.495 197.754C205.201 198.603 205.701 199.614 205.952 200.705Z" fill="black"/>
<path d="M147.5 163.566V176.968" stroke="black" stroke-miterlimit="10" stroke-linecap="round"/>
<path d="M212.462 241.473H227.112" stroke="black" stroke-miterlimit="10" stroke-linecap="round"/>
<path d="M67.7771 241.473H82.4271" stroke="black" stroke-miterlimit="10" stroke-linecap="round"/>
<path d="M147.5 309.535V321.618" stroke="black" stroke-miterlimit="10" stroke-linecap="round"/>
<path d="M184.125 176.968C186.147 176.968 187.787 175.328 187.787 173.305C187.787 171.282 186.147 169.643 184.125 169.643C182.102 169.643 180.462 171.282 180.462 173.305C180.462 175.328 182.102 176.968 184.125 176.968Z" fill="black" stroke="black" stroke-miterlimit="10"/>
<path d="M110.875 176.968C112.897 176.968 114.537 175.328 114.537 173.305C114.537 171.282 112.897 169.643 110.875 169.643C108.852 169.643 107.212 171.282 107.212 173.305C107.212 175.328 108.852 176.968 110.875 176.968Z" fill="black" stroke="black" stroke-miterlimit="10"/>
<path d="M220.75 213.593C222.773 213.593 224.413 211.953 224.413 209.93C224.413 207.907 222.773 206.268 220.75 206.268C218.728 206.268 217.088 207.907 217.088 209.93C217.088 211.953 218.728 213.593 220.75 213.593Z" fill="black" stroke="black" stroke-miterlimit="10"/>
<path d="M74.2505 213.593C76.2732 213.593 77.913 211.953 77.913 209.93C77.913 207.907 76.2732 206.268 74.2505 206.268C72.2277 206.268 70.588 207.907 70.588 209.93C70.588 211.953 72.2277 213.593 74.2505 213.593Z" fill="black" stroke="black" stroke-miterlimit="10"/>
<path d="M220.75 275.855C222.773 275.855 224.413 274.215 224.413 272.193C224.413 270.17 222.773 268.53 220.75 268.53C218.728 268.53 217.088 270.17 217.088 272.193C217.088 274.215 218.728 275.855 220.75 275.855Z" fill="black" stroke="black" stroke-miterlimit="10"/>
<path d="M74.2505 275.855C76.2732 275.855 77.913 274.215 77.913 272.193C77.913 270.17 76.2732 268.53 74.2505 268.53C72.2277 268.53 70.588 270.17 70.588 272.193C70.588 274.215 72.2277 275.855 74.2505 275.855Z" fill="black" stroke="black" stroke-miterlimit="10"/>
<path d="M184.125 316.163C186.147 316.163 187.787 314.519 187.787 312.49C187.787 310.462 186.147 308.818 184.125 308.818C182.102 308.818 180.462 310.462 180.462 312.49C180.462 314.519 182.102 316.163 184.125 316.163Z" fill="black" stroke="black" stroke-miterlimit="10"/>
<path d="M110.875 316.163C112.897 316.163 114.537 314.519 114.537 312.49C114.537 310.462 112.897 308.818 110.875 308.818C108.852 308.818 107.212 310.462 107.212 312.49C107.212 314.519 108.852 316.163 110.875 316.163Z" fill="black" stroke="black" stroke-miterlimit="10"/>
</svg>
